<svg width="285" height="284" viewBox="0 0 285 284" fill="none" xmlns="http://www.w3.org/2000/svg">
<path d="M124.677 30V8.18182H137.845V10.5256H127.319V17.8977H137.163V20.2415H127.319V27.6562H138.015V30H124.677Z" fill="white"/>
<path d="M153.505 7.13056L157.12 17.1784L157.286 17.2139L164.676 9.505L167.718 10.1518L158.739 19.396L163.182 31.4932L160.139 30.8464L156.489 20.9653L156.322 20.9298L148.968 28.472L145.926 27.8252L155.071 18.6164L150.462 6.48379L153.505 7.13056Z" fill="white"/>
<path d="M171.359 31.8011L180.233 11.8692L186.968 14.8677C188.531 15.5639 189.684 16.4153 190.425 17.4217C191.176 18.4246 191.579 19.5098 191.635 20.6773C191.69 21.8449 191.456 23.0158 190.934 24.1902C190.411 25.3646 189.695 26.325 188.788 27.0715C187.887 27.8209 186.813 28.2601 185.566 28.389C184.322 28.5115 182.924 28.2276 181.374 27.5372L176.546 25.3879L177.5 23.2468L182.249 25.3614C183.32 25.838 184.262 26.0359 185.075 25.9549C185.889 25.874 186.581 25.5838 187.154 25.0844C187.735 24.5815 188.204 23.931 188.559 23.1329C188.914 22.3348 189.083 21.5547 189.064 20.7925C189.053 20.0331 188.799 19.3291 188.302 18.6805C187.809 18.0254 187.02 17.4566 185.937 16.9742L181.693 15.085L173.772 32.8757L171.359 31.8011Z" fill="white"/>
<path d="M194.327 40.689L207.151 23.0377L209.289 24.5907L197.842 40.3459L206.047 46.3072L204.67 48.2033L194.327 40.689Z" fill="white"/>
<path d="M233.319 58.524C231.609 60.0638 229.853 61.0856 228.052 61.5897C226.25 62.0937 224.527 62.1115 222.882 61.6431C221.237 61.1747 219.792 60.249 218.546 58.8662C217.301 57.4834 216.532 55.9494 216.238 54.2644C215.944 52.5794 216.142 50.8674 216.831 49.1283C217.521 47.3892 218.721 45.7498 220.431 44.21C222.141 42.6703 223.897 41.6484 225.699 41.1443C227.5 40.6403 229.224 40.6225 230.869 41.0909C232.514 41.5593 233.959 42.485 235.204 43.8678C236.449 45.2506 237.218 46.7846 237.512 48.4696C237.806 50.1546 237.608 51.8666 236.919 53.6057C236.229 55.3448 235.029 56.9842 233.319 58.524ZM231.608 56.6239C233.012 55.3598 233.986 54.058 234.529 52.7186C235.076 51.3844 235.24 50.0955 235.018 48.8518C234.801 47.6134 234.251 46.5033 233.367 45.5216C232.483 44.5399 231.434 43.8739 230.221 43.5237C229.012 43.1787 227.713 43.2062 226.324 43.6061C224.94 44.0113 223.546 44.846 222.142 46.1101C220.738 47.3742 219.762 48.6734 219.214 50.0075C218.671 51.3469 218.508 52.6358 218.725 53.8743C218.947 55.118 219.499 56.2307 220.383 57.2124C221.267 58.1941 222.314 58.8574 223.523 59.2024C224.736 59.5527 226.035 59.5252 227.419 59.12C228.808 58.7201 230.205 57.888 231.608 56.6239Z" fill="white"/>
<path d="M230.601 69.6947L249.496 58.7856L253.182 65.1701C254.034 66.6463 254.481 68.0036 254.524 69.242C254.573 70.4768 254.292 71.574 253.681 72.5334C253.07 73.4928 252.208 74.2939 251.095 74.9366C249.982 75.5794 248.863 75.9218 247.739 75.9638C246.616 76.0058 245.536 75.6983 244.501 75.0413C243.471 74.3808 242.534 73.3186 241.689 71.8547L238.706 66.6881L240.773 65.4949L243.713 70.5877C244.295 71.5965 244.912 72.3231 245.562 72.7678C246.216 73.2185 246.893 73.426 247.595 73.3903C248.305 73.3572 249.039 73.1223 249.795 72.6855C250.552 72.2487 251.132 71.7255 251.534 71.1158C251.937 70.5062 252.112 69.802 252.061 69.0032C252.016 68.2009 251.699 67.2892 251.109 66.2682L248.787 62.2456L231.922 71.9828L230.601 69.6947ZM244.224 73.6881L238.42 83.2387L236.886 80.5815L242.732 71.1048L244.224 73.6881Z" fill="white"/>
<path d="M243.905 90.1726L264.655 83.4305L268.724 95.9536L266.495 96.6779L263.243 86.6674L256.232 88.9456L259.273 98.3075L257.044 99.0318L254.002 89.6698L246.951 91.9611L250.256 102.134L248.027 102.858L243.905 90.1726Z" fill="white"/>
<path d="M278.308 134.494L277.979 137.63L259.192 143.111L259.165 143.365L276.402 152.632L276.072 155.769L254.373 153.488L254.632 151.03L271.118 152.763L271.14 152.551L255.367 144.037L255.616 141.664L272.815 136.616L272.837 136.404L256.351 134.671L256.61 132.213L278.308 134.494Z" fill="white"/>
<path d="M260.246 178.837C258.058 178.126 256.295 177.117 254.957 175.808C253.62 174.5 252.743 173.017 252.326 171.358C251.909 169.699 251.988 167.985 252.563 166.215C253.138 164.445 254.082 163.012 255.394 161.915C256.707 160.818 258.288 160.133 260.139 159.861C261.99 159.588 264.01 159.808 266.198 160.519C268.387 161.23 270.15 162.24 271.487 163.548C272.824 164.856 273.701 166.34 274.118 167.998C274.535 169.657 274.456 171.372 273.881 173.141C273.306 174.911 272.362 176.344 271.05 177.441C269.738 178.539 268.156 179.223 266.305 179.496C264.454 179.768 262.435 179.548 260.246 178.837ZM261.036 176.406C262.833 176.99 264.447 177.182 265.879 176.982C267.308 176.789 268.506 176.286 269.472 175.472C270.436 174.666 271.122 173.634 271.53 172.378C271.939 171.121 271.991 169.88 271.688 168.654C271.382 167.434 270.709 166.323 269.668 165.32C268.625 164.324 267.205 163.534 265.408 162.95C263.611 162.367 261.998 162.171 260.569 162.364C259.138 162.563 257.94 163.067 256.976 163.874C256.01 164.687 255.322 165.722 254.914 166.979C254.506 168.235 254.455 169.473 254.76 170.692C255.064 171.919 255.737 173.03 256.78 174.026C257.821 175.029 259.24 175.822 261.036 176.406Z" fill="white"/>
<path d="M249.213 182.069L268.108 192.978L264.422 199.362C263.569 200.838 262.618 201.904 261.566 202.56C260.521 203.22 259.431 203.525 258.295 203.476C257.158 203.427 256.034 203.081 254.92 202.438C253.807 201.796 252.951 200.998 252.353 200.046C251.755 199.093 251.481 198.005 251.532 196.78C251.59 195.558 252.041 194.215 252.886 192.751L255.869 187.585L257.936 188.778L254.995 193.871C254.413 194.879 254.092 195.777 254.032 196.562C253.969 197.354 254.128 198.044 254.509 198.634C254.893 199.233 255.463 199.75 256.22 200.187C256.977 200.624 257.719 200.864 258.449 200.908C259.178 200.952 259.876 200.752 260.542 200.308C261.214 199.868 261.845 199.138 262.435 198.116L264.757 194.094L247.892 184.357L249.213 182.069ZM252.566 195.863L241.393 195.613L242.927 192.955L254.057 193.28L252.566 195.863Z" fill="white"/>
<path d="M238.131 203.83L254.345 218.429L245.534 228.214L243.792 226.646L250.835 218.824L245.356 213.891L238.77 221.206L237.028 219.638L243.615 212.323L238.104 207.361L230.947 215.31L229.206 213.742L238.131 203.83Z" fill="white"/>
<path d="M199.296 251.282L198.343 249.141L207.063 245.259L208.016 247.4L199.296 251.282Z" fill="white"/>
<path d="M160.323 254V275.818H147.155V273.474H157.681V266.102H147.837V263.759H157.681V256.344H146.985V254H160.323Z" fill="white"/>
<path d="M131.672 276.87L128.057 266.822L127.89 266.786L120.501 274.495L117.458 273.848L126.437 264.604L121.994 252.507L125.037 253.154L128.687 263.035L128.854 263.07L136.208 255.528L139.251 256.175L130.105 265.384L134.714 277.516L131.672 276.87Z" fill="white"/>
<path d="M113.818 252.199L104.943 272.131L98.2086 269.132C96.6449 268.436 95.4924 267.585 94.751 266.578C94.0003 265.575 93.5972 264.49 93.5417 263.323C93.4862 262.155 93.7199 260.984 94.2427 259.81C94.7656 258.635 95.4809 257.675 96.3885 256.929C97.2897 256.179 98.3638 255.74 99.6107 255.611C100.855 255.488 102.252 255.772 103.803 256.463L108.63 258.612L107.677 260.753L102.927 258.639C101.857 258.162 100.915 257.964 100.101 258.045C99.2878 258.126 98.5949 258.416 98.0228 258.916C97.4412 259.419 96.9728 260.069 96.6174 260.867C96.2621 261.665 96.0936 262.445 96.1118 263.208C96.1236 263.967 96.3777 264.671 96.8741 265.32C97.3677 265.975 98.1562 266.543 99.2398 267.026L103.483 268.915L111.404 251.124L113.818 252.199Z" fill="white"/>
<path d="M90.8493 243.311L78.0249 260.962L75.8874 259.41L87.3342 243.654L79.1291 237.693L80.5067 235.797L90.8493 243.311Z" fill="white"/>
<path d="M51.857 225.476C53.5671 223.936 55.3229 222.915 57.1246 222.411C58.9262 221.907 60.6496 221.889 62.2946 222.357C63.9397 222.826 65.3848 223.751 66.6299 225.134C67.875 226.517 68.6445 228.051 68.9384 229.736C69.2323 231.421 69.0345 233.133 68.3449 234.872C67.6553 236.611 66.4555 238.25 64.7454 239.79C63.0353 241.33 61.2794 242.352 59.4778 242.856C57.6762 243.36 55.9528 243.378 54.3077 242.909C52.6627 242.441 51.2176 241.515 49.9725 240.132C48.7274 238.75 47.9579 237.216 47.664 235.531C47.3701 233.846 47.5679 232.134 48.2575 230.395C48.9471 228.655 50.1469 227.016 51.857 225.476ZM53.5678 227.376C52.1639 228.64 51.1905 229.942 50.6475 231.282C50.0999 232.616 49.9368 233.905 50.1582 235.148C50.375 236.387 50.9253 237.497 51.8092 238.479C52.6932 239.46 53.742 240.126 54.9557 240.477C56.1647 240.822 57.4636 240.794 58.8525 240.394C60.2366 239.989 61.6306 239.154 63.0345 237.89C64.4385 236.626 65.4143 235.327 65.962 233.993C66.5049 232.653 66.668 231.364 66.4513 230.126C66.2298 228.882 65.6771 227.77 64.7931 226.788C63.9092 225.806 62.8628 225.143 61.6538 224.798C60.44 224.448 59.1411 224.475 57.757 224.88C56.3682 225.28 54.9718 226.112 53.5678 227.376Z" fill="white"/>
<path d="M54.5757 214.305L35.6806 225.215L31.9945 218.83C31.1422 217.354 30.6948 215.997 30.6523 214.758C30.6036 213.523 30.8846 212.426 31.4952 211.467C32.1059 210.507 32.9678 209.706 34.0811 209.063C35.1944 208.421 36.313 208.078 37.4369 208.036C38.5607 207.994 39.6404 208.302 40.6758 208.959C41.705 209.619 42.6422 210.682 43.4874 212.145L46.4703 217.312L44.4037 218.505L41.4633 213.412C40.8809 212.404 40.2646 211.677 39.6142 211.232C38.9603 210.782 38.2828 210.574 37.5818 210.61C36.871 210.643 36.1374 210.878 35.3808 211.315C34.6243 211.751 34.0447 212.275 33.6422 212.884C33.2397 213.494 33.064 214.198 33.1151 214.997C33.1601 215.799 33.4773 216.711 34.0668 217.732L36.3893 221.755L53.2546 212.017L54.5757 214.305ZM40.9527 210.312L46.7561 200.761L48.2901 203.419L42.4442 212.895L40.9527 210.312Z" fill="white"/>
<path d="M41.2712 193.828L20.5208 200.57L16.4518 188.047L18.6809 187.322L21.9334 197.333L28.9448 195.055L25.9029 185.693L28.1319 184.968L31.1738 194.33L38.2257 192.039L34.9204 181.867L37.1495 181.142L41.2712 193.828Z" fill="white"/>
<path d="M6.8681 149.507L7.19772 146.37L25.9844 140.889L26.0111 140.635L8.77455 131.368L9.10417 128.232L30.8028 130.512L30.5445 132.97L14.0586 131.238L14.0363 131.45L29.8095 139.963L29.5601 142.336L12.3615 147.384L12.3392 147.596L28.8251 149.329L28.5668 151.787L6.8681 149.507Z" fill="white"/>
<path d="M24.9301 105.163C27.1186 105.874 28.8815 106.883 30.2188 108.192C31.5562 109.5 32.4333 110.984 32.8501 112.642C33.267 114.301 33.1879 116.016 32.6129 117.785C32.0379 119.555 31.0942 120.988 29.7819 122.085C28.4696 123.182 26.888 123.867 25.0371 124.139C23.1862 124.412 21.1665 124.192 18.978 123.481C16.7895 122.77 15.0266 121.761 13.6893 120.452C12.352 119.144 11.4749 117.661 11.058 116.002C10.6411 114.343 10.7202 112.628 11.2952 110.859C11.8702 109.089 12.8139 107.656 14.1262 106.559C15.4385 105.462 17.0201 104.777 18.871 104.505C20.7219 104.232 22.7416 104.452 24.9301 105.163ZM24.14 107.594C22.3433 107.011 20.7292 106.818 19.2977 107.018C17.8685 107.211 16.6707 107.714 15.7044 108.528C14.7402 109.335 14.054 110.366 13.6458 111.623C13.2376 112.879 13.1853 114.12 13.4888 115.346C13.7945 116.566 14.4678 117.677 15.5086 118.68C16.5515 119.676 17.9714 120.466 19.7681 121.05C21.5649 121.633 23.1778 121.829 24.6071 121.636C26.0385 121.437 27.2363 120.933 28.2005 120.127C29.1668 119.313 29.8541 118.278 30.2623 117.022C30.6705 115.765 30.7218 114.527 30.416 113.308C30.1125 112.081 29.4392 110.97 28.3963 109.974C27.3555 108.971 25.9367 108.178 24.14 107.594Z" fill="white"/>
<path d="M35.9636 101.932L17.0685 91.0227L20.7546 84.6382C21.6069 83.162 22.5586 82.0959 23.6099 81.4399C24.6549 80.7803 25.7456 80.4751 26.8818 80.5242C28.018 80.5733 29.1427 80.9192 30.256 81.562C31.3693 82.2047 32.2251 83.0023 32.8234 83.9546C33.4217 84.9069 33.6952 85.9956 33.644 87.2208C33.5866 88.4424 33.1353 89.7851 32.2901 91.249L29.3072 96.4156L27.2405 95.2225L30.1808 90.1296C30.7632 89.1209 31.0844 88.2238 31.1442 87.4383C31.2077 86.6466 31.0486 85.9561 30.6672 85.3668C30.2831 84.7678 29.7128 84.2499 28.9563 83.8131C28.1997 83.3764 27.4568 83.1361 26.7276 83.0923C25.9984 83.0485 25.3007 83.2485 24.6345 83.6922C23.9621 84.1323 23.3312 84.8628 22.7417 85.8839L20.4193 89.9065L37.2846 99.6437L35.9636 101.932ZM32.6105 88.1372L43.7832 88.3878L42.2491 91.0449L31.1191 90.7205L32.6105 88.1372Z" fill="white"/>
<path d="M47.0458 80.1707L30.8317 65.5714L39.6426 55.786L41.3843 57.3543L34.3413 65.1763L39.8199 70.1092L46.4067 62.7939L48.1484 64.3622L41.5617 71.6775L47.0719 76.639L54.2289 68.6903L55.9707 70.2585L47.0458 80.1707Z" fill="white"/>
<path d="M85.8804 32.7179L86.8337 34.859L78.1135 38.7415L77.1602 36.6003L85.8804 32.7179Z" fill="white"/>
</svg>
